<?xml version="1.0" encoding="UTF-8"?>
<svg id="Layer_1" data-name="Layer 1" xmlns="http://www.w3.org/2000/svg" viewBox="0 0 527 478">
  <defs>
    <style>
      .cls-1 {
        fill: #dc3d27;
      }
    </style>
  </defs>
  <path class="cls-1" d="M395.68,433.54H131.53c1.85-7.8,7.03-11.91,14.01-12.48,6.01-.49,7.21-4.08,8.89-8.47,29.53-77.16,59.11-154.3,88.82-231.38,1.85-4.81,2.5-8.42-.57-13.38-6.36-10.25-3.37-23.13,5.85-30.37,8.93-7.02,21.91-6.83,30.6.44,9,7.53,11.53,20.35,5.14,30.53-2.71,4.31-2.29,7.57-.65,11.86,29.56,77.15,59.03,154.33,88.33,231.58,1.98,5.22,4.15,8.54,10.25,9.25,6.82.79,11.46,5,13.48,12.42ZM323.47,308.9c-17.78,12.3-34.72,24.02-52.26,36.15,29.81,20.82,58.78,41.05,87.76,61.28.45-.39.89-.77,1.34-1.16-12.18-31.84-24.36-63.69-36.83-96.28ZM203.82,308.93c-12.52,32.69-24.71,64.5-37.74,98.54,31-21.52,60.05-41.69,89.77-62.32-17.56-12.22-34.35-23.91-52.03-36.21ZM268.26,353.61v65.86h94.1c-31.85-22.29-62.46-43.71-94.1-65.86ZM259.08,353.63c-31.76,22.06-62.65,43.52-95.05,66.03h95.05v-66.03ZM304.79,259.94c-11.75,7.87-22.71,14.93-33.26,22.54-2,1.44-3.27,5.05-3.4,7.73-.43,8.7-.17,17.43-.17,26.15,0,6.18,0,12.37,0,19.89,18.36-12.69,35.15-24.29,52.11-36-5.1-13.46-9.98-26.33-15.27-40.3ZM207.06,300.19c17.26,11.94,34.27,23.7,52.3,36.17,0-17.01.09-32.11-.11-47.21-.03-1.97-1.04-4.69-2.53-5.75-10.99-7.82-22.21-15.31-34.16-23.45-5.31,13.79-10.31,26.77-15.5,40.24ZM301.5,251.66c-5.03-13.13-9.72-25.36-14.49-37.81-5.67,3.78-10.66,6.93-15.42,10.39-1.51,1.09-3.41,2.99-3.43,4.55-.26,14.72-.16,29.45-.16,45.3,11.87-7.95,22.47-15.05,33.5-22.43ZM225.69,251.64c11.27,7.58,21.96,14.77,33.68,22.65,0-15.77.06-30.02-.09-44.28-.02-1.54-.86-3.63-2.03-4.49-5.47-3.99-11.19-7.63-17.11-11.6-4.91,12.84-9.55,24.96-14.44,37.72ZM273.74,178.63c-6.31,2.54-8.2,18.84-4.78,36.69,5.05-3.39,9.81-6.58,14.81-9.94-3.4-9.08-6.61-17.63-10.03-26.75ZM255.85,178.17c-.85.41-1.7.81-2.55,1.22-2.79,7.35-5.72,14.65-8.27,22.08-.52,1.52-.26,4.32.77,5.16,3.96,3.23,8.37,5.91,13.6,9.47,0-11.55.23-21.22-.16-30.88-.1-2.39-2.21-4.7-3.39-7.05Z"/>
  <path class="cls-1" d="M398.71,152.25c-.56,39.4-12.57,70.18-36.76,95.99-1.94,2.07-5.79,2.37-8.75,3.49.75-3.03.54-6.93,2.39-8.97,24.63-27.32,35.54-59.12,33.7-95.86-2.82-56.47-51.58-108.84-108.02-115.15-68.76-7.68-125.83,31.75-140.76,99.12-9.04,40.81,1.54,77.6,29.07,109.35,2.72,3.13,9.2,6.53,4.33,11.1-5.16,4.85-7.94-2.28-10.47-5.22-33.93-39.26-44.06-84.18-27.43-133.25,16.63-49.07,51.85-79.44,102.89-88.9,73.76-13.67,141.14,32.31,156.78,105.63,1.86,8.72,2.39,17.73,3.02,22.65Z"/>
  <path class="cls-1" d="M167.71,151.04c-.2-38.97,29.77-76.96,73.71-87.97,41.32-10.36,86,9.73,106.33,47.82,19.75,36.99,14.45,79.81-13.94,110.38-1.76,1.9-5.34,2.11-8.07,3.11.58-3.06.12-7,1.88-9.05,42.24-49.5,24.2-119.36-36.76-141.62-48.4-17.68-106.1,17.29-113.08,68.28-3.81,27.84,3.05,52.17,21.8,73.27,1.8,2.03,1.36,6.04,1.96,9.13-2.75-.99-6.32-1.19-8.12-3.08-17.19-18.13-25.27-40.01-25.71-70.27Z"/>
  <path class="cls-1" d="M118.15,456.43c3.85-9.99,9.08-13.43,20.31-13.45,34.42-.05,68.84-.02,103.26-.02,48.8,0,97.61-.01,146.41.01,11.94,0,17.17,3.39,20.72,13.46H118.15Z"/>
  <path class="cls-1" d="M321.65,158.99c.11,11.64-4.46,23.95-13.53,34.35-2.07,2.37-7.73,5.08-8.88,4.14-4.12-3.38-.37-6.51,2.1-9.5,13.78-16.71,15.34-40.16,3.98-58.11-11.27-17.82-33.44-26.46-54.37-21.18-34.49,8.7-48.22,52.32-25.05,79.52,1.47,1.73,3.24,3.5,3.86,5.55.33,1.09-1.57,4.08-2.35,4.04-2.23-.11-5.14-.69-6.49-2.23-15.61-17.7-19.76-37.97-11.48-60.05,10.11-26.97,37.44-41.4,66.51-35.94,26.2,4.92,45.79,29.41,45.7,59.41Z"/>
</svg>